<svg width="32" height="32" viewBox="0 0 32 32" fill="none" xmlns="http://www.w3.org/2000/svg">
<path d="M0 16C0 7.16344 7.16344 0 16 0C24.8366 0 32 7.16344 32 16C32 24.8366 24.8366 32 16 32C7.16344 32 0 24.8366 0 16Z" fill="#0077B5"/>
<path d="M22.4 22.3996V17.7116C22.4 15.4076 21.904 13.6476 19.216 13.6476C17.92 13.6476 17.056 14.3516 16.704 15.0236H16.672V13.8556H14.128V22.3996H16.784V18.1596C16.784 17.0396 16.992 15.9676 18.368 15.9676C19.728 15.9676 19.744 17.2316 19.744 18.2236V22.3836H22.4V22.3996ZM9.80801 13.8556H12.464V22.3996H9.80801V13.8556ZM11.136 9.59961C10.288 9.59961 9.60001 10.2876 9.60001 11.1356C9.60001 11.9836 10.288 12.6876 11.136 12.6876C11.984 12.6876 12.672 11.9836 12.672 11.1356C12.672 10.2876 11.984 9.59961 11.136 9.59961Z" fill="white"/>
</svg>
