<svg width="233" height="73" viewBox="0 0 233 73" fill="none" xmlns="http://www.w3.org/2000/svg">
<g clip-path="url(#clip0_2612_1121)">
<path d="M203.665 22.7432C204.337 25.1729 206.161 26.3858 209.137 26.3858C211.051 26.3858 212.502 25.7387 213.484 24.4483L217.52 26.7733C215.607 29.5363 212.785 30.9198 209.06 30.9198C205.85 30.9198 203.277 29.951 201.337 28.0134C199.397 26.0758 198.426 23.6345 198.426 20.6894C198.426 17.7443 199.385 15.3339 201.298 13.3847C203.211 11.4355 205.672 10.459 208.672 10.459C211.516 10.459 213.864 11.4394 215.715 13.4041C217.567 15.3688 218.49 17.7946 218.49 20.6894C218.49 21.3365 218.424 22.0185 218.296 22.7432H203.665ZM203.588 18.8681H213.484C213.201 17.5505 212.611 16.5701 211.718 15.9229C210.826 15.2758 209.809 14.9542 208.672 14.9542C207.325 14.9542 206.215 15.2952 205.334 15.9811C204.453 16.667 203.871 17.628 203.588 18.8681Z" fill="#697AE2"/>
<path d="M181.479 54.1319C182.15 56.5616 183.974 57.7745 186.951 57.7745C188.864 57.7745 190.315 57.1274 191.297 55.8369L195.333 58.162C193.42 60.925 190.599 62.3084 186.873 62.3084C183.664 62.3084 181.091 61.3396 179.15 59.4021C177.21 57.4645 176.24 55.0232 176.24 52.078C176.24 49.1329 177.194 46.7226 179.111 44.7734C181.025 42.8242 183.485 41.8477 186.485 41.8477C189.33 41.8477 191.678 42.8281 193.529 44.7928C195.38 46.7575 196.303 49.1833 196.303 52.078C196.303 52.7252 196.237 53.4072 196.109 54.1319H181.479ZM181.401 50.2567H191.297C191.014 48.9392 190.424 47.9588 189.531 47.3116C188.639 46.6645 187.622 46.3428 186.485 46.3428C185.138 46.3428 184.028 46.6838 183.147 47.3697C182.267 48.0556 181.684 49.0167 181.401 50.2567Z" fill="#697AE2"/>
<path d="M203.665 54.1319C204.337 56.5616 206.161 57.7745 209.137 57.7745C211.051 57.7745 212.502 57.1274 213.484 55.8369L217.52 58.162C215.607 60.925 212.785 62.3084 209.06 62.3084C205.85 62.3084 203.277 61.3396 201.337 59.4021C199.397 57.4645 198.426 55.0232 198.426 52.078C198.426 49.1329 199.381 46.7226 201.298 44.7734C203.211 42.8242 205.672 41.8477 208.672 41.8477C211.516 41.8477 213.864 42.8281 215.715 44.7928C217.567 46.7575 218.49 49.1833 218.49 52.078C218.49 52.7252 218.424 53.4072 218.296 54.1319H203.665ZM203.588 50.2567H213.484C213.201 48.9392 212.611 47.9588 211.718 47.3116C210.826 46.6645 209.809 46.3428 208.672 46.3428C207.325 46.3428 206.215 46.6838 205.334 47.3697C204.453 48.0556 203.871 49.0167 203.588 50.2567Z" fill="#697AE2"/>
<path d="M14.6262 30.7999C10.5397 30.7999 7.16339 29.4436 4.49726 26.731C1.83113 24.0184 0.5 20.6742 0.5 16.6944C0.5 12.7146 1.83113 9.33937 4.49726 6.63839C7.16339 3.93742 10.5397 2.58887 14.6262 2.58887C17.0828 2.58887 19.3531 3.16239 21.4371 4.31331C23.5211 5.46423 25.1433 7.01816 26.3075 8.98286L21.6893 11.6567C21.018 10.4438 20.0594 9.49438 18.8175 8.80848C17.5757 8.12258 16.1786 7.78156 14.6262 7.78156C11.9873 7.78156 9.86057 8.60697 8.24226 10.2617C6.62395 11.9163 5.81674 14.0593 5.81674 16.6944C5.81674 19.3295 6.62395 21.4337 8.24226 23.0884C9.86057 24.7431 11.9873 25.5685 14.6262 25.5685C16.1786 25.5685 17.5834 25.2275 18.8369 24.5416C20.0904 23.8557 21.0412 22.9218 21.6893 21.7321L26.3075 24.4059C25.1433 26.3706 23.525 27.9246 21.4565 29.0755C19.388 30.2264 17.11 30.7999 14.6262 30.7999Z" fill="#4C475E"/>
<path d="M47.3028 27.8352C45.312 29.8115 42.8787 30.7996 40.0069 30.7996C37.1351 30.7996 34.7095 29.8115 32.7303 27.8352C30.7511 25.8588 29.7615 23.4369 29.7615 20.5693C29.7615 17.7016 30.7511 15.2797 32.7303 13.3034C34.7095 11.327 37.1351 10.3389 40.0069 10.3389C42.8787 10.3389 45.312 11.327 47.3028 13.3034C49.2937 15.2797 50.2911 17.7016 50.2911 20.5693C50.2911 23.4369 49.2937 25.8588 47.3028 27.8352ZM36.2619 24.4056C37.2592 25.4132 38.505 25.917 40.0069 25.917C41.5088 25.917 42.7623 25.4132 43.7713 24.4056C44.7803 23.3981 45.2848 22.1193 45.2848 20.5693C45.2848 19.0192 44.7803 17.7404 43.7713 16.7329C42.7623 15.7253 41.5088 15.2216 40.0069 15.2216C38.505 15.2216 37.2592 15.7253 36.2619 16.7329C35.2645 17.7404 34.7677 19.0192 34.7677 20.5693C34.7677 22.1193 35.2645 23.3981 36.2619 24.4056Z" fill="#4C475E"/>
<path d="M75.2836 10.3389C77.5074 10.3389 79.2887 11.0635 80.6198 12.5089C81.9509 13.9544 82.6184 15.892 82.6184 18.3217V30.2571H77.6121V18.6704C77.6121 17.5079 77.3288 16.605 76.7584 15.9578C76.1879 15.3107 75.3884 14.989 74.3522 14.989C73.2152 14.989 72.3264 15.3649 71.6939 16.1128C71.0613 16.8607 70.7431 17.9458 70.7431 19.368V30.2571H65.7368V18.6704C65.7368 17.5079 65.4535 16.605 64.883 15.9578C64.3125 15.3107 63.5131 14.989 62.4769 14.989C61.3631 14.989 60.4783 15.3649 59.8185 16.1128C59.1588 16.8607 58.8289 17.9458 58.8289 19.368V30.2571H53.8226V10.8814H58.8289V12.9352C59.9932 11.203 61.79 10.3389 64.2233 10.3389C66.6565 10.3389 68.3641 11.2689 69.5012 13.129C70.7935 11.2689 72.7223 10.3389 75.2836 10.3389Z" fill="#4C475E"/>
<path d="M98.1805 10.3389C100.792 10.3389 103.024 11.327 104.875 13.3034C106.726 15.2797 107.65 17.7016 107.65 20.5693C107.65 23.4369 106.726 25.8588 104.875 27.8352C103.024 29.8115 100.792 30.7996 98.1805 30.7996C95.5687 30.7996 93.3683 29.858 91.8936 27.9708V38.0074H86.8873V10.8814H91.8936V13.1677C93.3683 11.2805 95.464 10.3389 98.1805 10.3389ZM93.4071 24.5025C94.4161 25.5217 95.6968 26.0332 97.2491 26.0332C98.8015 26.0332 100.086 25.5217 101.111 24.5025C102.131 23.4834 102.644 22.1697 102.644 20.5693C102.644 18.9688 102.131 17.6551 101.111 16.636C100.09 15.6168 98.8015 15.1053 97.2491 15.1053C95.6968 15.1053 94.4161 15.6168 93.4071 16.636C92.3981 17.6551 91.8936 18.9688 91.8936 20.5693C91.8936 22.1697 92.3981 23.4834 93.4071 24.5025Z" fill="#4C475E"/>
<path d="M111.181 30.2573V1.96875H116.188V30.2573H111.181Z" fill="#4C475E"/>
<path d="M123.251 8.55601C122.424 8.55601 121.706 8.25375 121.097 7.64535C120.488 7.03696 120.185 6.32005 120.185 5.49465C120.185 4.66924 120.488 3.94459 121.097 3.32457C121.706 2.70454 122.424 2.39453 123.251 2.39453C124.077 2.39453 124.834 2.70454 125.443 3.32457C126.049 3.94459 126.355 4.66924 126.355 5.49465C126.355 6.32005 126.049 7.03696 125.443 7.64535C124.834 8.25375 124.104 8.55601 123.251 8.55601ZM120.767 30.2568V10.8811H125.773V30.2568H120.767Z" fill="#4C475E"/>
<path d="M145.1 10.8814H150.106V30.2571H145.1V27.9708C143.598 29.858 141.491 30.7996 138.774 30.7996C136.057 30.7996 133.97 29.8115 132.118 27.8352C130.267 25.8588 129.344 23.4369 129.344 20.5693C129.344 17.7016 130.267 15.2797 132.118 13.3034C133.97 11.327 136.186 10.3389 138.774 10.3389C141.491 10.3389 143.598 11.2805 145.1 13.1677V10.8814ZM135.863 24.5025C136.872 25.5217 138.153 26.0332 139.705 26.0332C141.258 26.0332 142.546 25.5217 143.567 24.5025C144.588 23.4834 145.1 22.1697 145.1 20.5693C145.1 18.9688 144.588 17.6551 143.567 16.636C142.546 15.6168 141.258 15.1053 139.705 15.1053C138.153 15.1053 136.872 15.6168 135.863 16.636C134.854 17.6551 134.35 18.9688 134.35 20.5693C134.35 22.1697 134.854 23.4834 135.863 24.5025Z" fill="#4C475E"/>
<path d="M165.435 10.3389C167.558 10.3389 169.308 11.048 170.694 12.4702C172.079 13.8924 172.77 15.8532 172.77 18.3604V30.2571H167.764V18.9804C167.764 17.69 167.415 16.7019 166.716 16.016C166.017 15.3301 165.086 14.989 163.922 14.989C162.63 14.989 161.593 15.3882 160.817 16.1903C160.041 16.9925 159.653 18.1938 159.653 19.7942V30.2571H154.647V10.8814H159.653V13.0515C160.868 11.2418 162.796 10.3389 165.435 10.3389Z" fill="#4C475E"/>
<path d="M141.533 62.1886C138.844 62.1886 136.577 61.588 134.742 60.3867C132.906 59.1854 131.61 57.55 130.861 55.4846L135.44 52.8107C136.5 55.5737 138.584 56.9572 141.689 56.9572C143.19 56.9572 144.289 56.6859 144.987 56.1434C145.686 55.6009 146.035 54.915 146.035 54.0895C146.035 53.1324 145.608 52.3922 144.754 51.8613C143.901 51.3304 142.375 50.7569 140.175 50.1369C138.96 49.7765 137.932 49.4122 137.09 49.0519C136.248 48.6915 135.409 48.2071 134.567 47.5987C133.725 46.9903 133.085 46.223 132.646 45.293C132.208 44.3629 131.986 43.2779 131.986 42.0378C131.986 39.5849 132.86 37.6279 134.606 36.167C136.352 34.7061 138.456 33.9775 140.912 33.9775C143.113 33.9775 145.045 34.5123 146.714 35.5857C148.383 36.6591 149.683 38.1511 150.614 40.0615L146.113 42.6579C145.026 40.3328 143.291 39.1702 140.912 39.1702C139.799 39.1702 138.925 39.4221 138.293 39.9259C137.66 40.4297 137.342 41.0807 137.342 41.8828C137.342 42.7354 137.699 43.4251 138.409 43.956C139.119 44.4869 140.485 45.0605 142.504 45.6805C143.33 45.9401 143.959 46.1377 144.386 46.2811C144.813 46.4245 145.395 46.6415 146.132 46.9399C146.869 47.2383 147.44 47.5134 147.84 47.7731C148.239 48.0327 148.701 48.3815 149.217 48.8193C149.734 49.2572 150.129 49.7106 150.401 50.1756C150.673 50.6407 150.906 51.2026 151.1 51.8613C151.294 52.5201 151.391 53.237 151.391 54.012C151.391 56.5193 150.479 58.5072 148.655 59.9798C146.831 61.4523 144.456 62.1886 141.533 62.1886Z" fill="#4C475E"/>
<path d="M165.439 41.7273C167.562 41.7273 169.312 42.4365 170.698 43.8586C172.083 45.2808 172.774 47.2416 172.774 49.7489V61.6455H167.768V50.3689C167.768 49.0785 167.418 48.0903 166.72 47.4044C166.021 46.7185 165.09 46.3775 163.926 46.3775C162.633 46.3775 161.597 46.7766 160.821 47.5788C160.045 48.3809 159.657 49.5822 159.657 51.1827V61.6455H154.651V34.5195H159.657V44.4399C160.871 42.6302 162.8 41.7273 165.439 41.7273Z" fill="#4C475E"/>
<path d="M232.5 47.0751H228.115V55.1354C228.115 55.8058 228.282 56.298 228.619 56.608C228.957 56.918 229.446 57.0924 230.094 57.1311C230.742 57.1699 231.541 57.1621 232.5 57.1117V61.6457C229.058 62.0332 226.632 61.7115 225.223 60.6769C223.815 59.6422 223.108 57.7976 223.108 55.1354V38.356L228.115 36.8447V42.2699H232.5V47.0751Z" fill="#4C475E"/>
<path d="M172.77 33.3574H167.791V38.8718C169.72 39.2825 171.435 40.2048 172.836 41.6076V33.3574H172.77Z" fill="#697AE2"/>
<path d="M172.832 5.03769H223.089V35.1243L227.218 33.8765L228.134 33.6014V0H167.787V7.48291C169.716 7.89367 171.431 8.81983 172.832 10.2265V5.03769Z" fill="#697AE2"/>
<path d="M223.089 62.9443V67.9665H172.832V64.7502H167.787V73.0042H228.134V64.816C226.186 64.6184 224.618 64.0798 223.388 63.1768C223.287 63.1032 223.186 63.0218 223.089 62.9443Z" fill="#697AE2"/>
<path d="M228.115 55.1355C228.115 55.2363 228.126 55.3254 228.134 55.4184V47.0752H228.115V55.1355Z" fill="white"/>
<path d="M190.832 15.4659C194.27 13.4043 199.428 12.1642 199.583 12.5479C199.703 12.854 195.058 14.9427 191.363 18.0932C188.72 20.3486 187.87 22.3559 187.094 23.9059C187.059 23.9757 185.949 22.5419 185.852 22.4024C184.766 20.8058 185.158 21.577 185.542 20.8058C187.094 17.7057 189.035 16.5432 190.832 15.4659Z" fill="#EA5454"/>
<path d="M190.199 14.0518C191.006 13.6914 191.98 13.2884 192.993 12.8931C192.52 12.4707 191.996 12.0948 191.421 11.7577C189.869 10.8548 188.15 10.4014 186.26 10.4014C183.334 10.4014 180.897 11.3818 178.945 13.3465C176.992 15.3112 176.015 17.737 176.015 20.6318C176.015 23.5265 176.992 25.9523 178.945 27.917C180.897 29.8817 183.338 30.8621 186.26 30.8621C188.15 30.8621 189.869 30.4049 191.421 29.4865C192.974 28.5681 194.177 27.3474 195.031 25.8244L190.684 23.3444C190.296 24.1465 189.706 24.7704 188.918 25.2238C188.127 25.6772 187.23 25.902 186.221 25.902C184.719 25.902 183.477 25.4059 182.496 24.41C181.514 23.4141 181.021 22.1547 181.021 20.6318C181.021 19.1088 181.514 17.8106 182.496 16.8147C183.477 15.8188 184.719 15.3228 186.221 15.3228C186.679 15.3228 187.118 15.3771 187.537 15.4817C188.484 14.8578 189.419 14.3928 190.145 14.0789L190.203 14.0518H190.199Z" fill="#697AE2"/>
<path d="M187.094 19.2554C187.482 19.6429 185.631 22.1152 185.542 21.968C184.378 20.0304 182.437 19.6429 182.825 18.8679C184.308 15.9073 185.542 17.7053 187.094 19.2554Z" fill="#EA5454"/>
</g>
<defs>
<clipPath id="clip0_2612_1121">
<rect width="232" height="73" fill="white" transform="translate(0.5)"/>
</clipPath>
</defs>
</svg>
